<svg xmlns="http://www.w3.org/2000/svg" viewBox="81.7 212.6 678.402 169.6">
  <defs></defs>
  <g>
    <path class="st0" d="M165.1,245c-1.4,1.3-2.9,2.8-4.5,4.3c-2.7,2.7-5,5.1-6.9,7.3c0.6,2.2,0.9,4.6,0.9,7c0,2.4-0.3,4.8-0.9,7.1 c-2,8-7.3,14.7-14.5,18.6c-4.1,2.2-8.7,3.4-13.7,3.4c-16,0-29-13-29-29c0-16,13-29,29-29c5,0,9.7,1.3,13.8,3.5 c1.6-1.7,3.2-3.4,5-5.1c2-2,3.9-3.8,5.7-5.6c-7-4.7-15.4-7.5-24.5-7.5c-24.2,0-43.8,19.6-43.8,43.8c0,24.2,19.6,43.8,43.8,43.8 c24.2,0,43.8-19.6,43.8-43.8C169.3,257,167.8,250.7,165.1,245" style="fill: rgb(0, 55, 97);"></path>
    <path class="st0" d="M174.9,212.6c0,0-12.2,8.2-27.5,23.6c-15.4,15.4-23.6,27.5-23.6,27.5s5.6,8.3,16.1,19.9c4-2.9,7.1-7,8.8-11.8 c-4.2-4.9-6.5-8.1-6.5-8.1s5.5-7.6,15.3-17.5c9.9-9.9,17.5-15.3,17.5-15.3s3.4,2.5,8.6,7c2.6-4.1,5.8-7.7,9.4-10.9 C182.4,217.6,174.9,212.6,174.9,212.6" style="fill: rgb(0, 55, 97);"></path>
    <path class="st0" d="M268.1,263.7c0,24.2-19.6,43.8-43.8,43.8c-9.1,0-17.5-2.8-24.4-7.5c1.9-1.7,3.8-3.6,5.8-5.6 c1.8-1.7,3.4-3.4,5-5.1c4.1,2.2,8.8,3.5,13.7,3.5c16,0,29-13,29-29v-29h-29c-16,0-29,13-29,29c0,2.4,0.3,4.8,0.9,7 c-2,2.2-4.3,4.7-6.9,7.3c-1.6,1.6-3.1,3-4.5,4.4c-2.7-5.7-4.2-12-4.2-18.7c0-24.2,19.6-43.8,43.8-43.8h43.8V263.7z" style="fill: rgb(0, 55, 97);"></path>
    <path class="st0" d="M209.9,243.8c-4,2.9-7.1,7-8.8,11.7c4.3,4.9,6.6,8.2,6.6,8.2h0c0,0-5.5,7.6-15.3,17.5 c-9.9,9.9-17.5,15.3-17.5,15.3s-3.5-2.5-8.7-7c-2.6,4.1-5.8,7.7-9.4,10.9c10.6,9.5,18.1,14.5,18.1,14.5s12.2-8.2,27.5-23.6 c15.4-15.4,23.6-27.5,23.6-27.5S220.5,255.3,209.9,243.8" style="fill: rgb(0, 55, 97);"></path>
    <path class="st0" d="M420.7,243.3c0,0,14.5-4.9,26.4-4.9c15.5,0,23.5,7.2,23.5,22.9v28c0,3.6-15.9,3.6-15.9,3.6v-32.1 c0-6.9-2.8-11.1-8.8-11.1c-4.6,0-9.4,1.3-9.4,1.3v38.4c0,3.6-15.9,3.6-15.9,3.6V243.3z" style="fill: rgb(0, 55, 97);"></path>
    <path class="st0" d="M621.8,289.3c0,3.6-15.9,3.6-15.9,3.6v-69.3c0-3.8,15.9-3.6,15.9-3.6V289.3z" style="fill: rgb(0, 55, 97);"></path>
    <path class="st0" d="M632.2,292.9v-46.5c0-3.6,15.9-3.6,15.9-3.6v46.5C648.1,292.9,632.2,292.9,632.2,292.9 M640.1,220 c5.4,0,8.8,3.6,8.7,8.4c0.1,4.6-3.4,8.3-8.6,8.3c-5.5,0-8.9-3.7-8.9-8.3C631.4,223.6,634.8,220,640.1,220" style="fill: rgb(0, 55, 97);"></path>
    <path class="st0" d="M732.9,289.3c0,3.6-15.9,3.6-15.9,3.6v-69.3c0-3.7,15.9-3.6,15.9-3.6V289.3z" style="fill: rgb(0, 55, 97);"></path>
    <path class="st0" d="M743.5,292.9v-46.5c0-3.5,15.9-3.6,15.9-3.6v46.5C759.4,292.9,743.5,292.9,743.5,292.9 M751.4,220 c5.3,0,8.8,3.6,8.7,8.4c0.1,4.6-3.4,8.3-8.6,8.3c-5.5,0-9-3.7-9-8.3C742.7,223.6,746.1,220,751.4,220" style="fill: rgb(0, 55, 97);"></path>
    <path class="st0" d="M519.1,292.9v-46.5c0-3.5,15.9-3.6,15.9-3.6v46.5C535,292.9,519.1,292.9,519.1,292.9 M527,220 c5.3,0,8.8,3.6,8.7,8.4c0.1,4.6-3.4,8.3-8.6,8.3c-5.5,0-9-3.7-9-8.3C518.3,223.6,521.7,220,527,220" style="fill: rgb(0, 55, 97);"></path>
    <path class="st0" d="M579.9,271.1c0.1-0.1-0.1,3.2-0.5,4.4c-1.1,3.9-5.2,5.7-9.5,5.7c-7,0-10.2-6.6-10.2-14.6v-1.9 c0-6.9,3.1-13.9,9.8-15.2c6.5-1.2,10.4,0.3,10.4,0.3V271.1z M567.8,238.6c-15.9,1.1-23.9,13.3-23.9,26.8v0.7 c0,15.4,8.6,26,21.8,26.7c6.6,0.4,12.4-2.4,14.3-5.2v4.4c0,6.9-3.5,11-9.4,11.8c-7,1-13.2,0.4-13.2,0.4l-2.5,10.1 c0,0,7.3,1.1,16.9,0.2c17.6-1.7,24-12.2,24-23.6v-49.4C595.8,241.4,581.3,237.7,567.8,238.6" style="fill: rgb(0, 55, 97);"></path>
    <path class="st0" d="M385.9,282.7c-8,0-11.3-8.6-11.3-16.5c0-7.9,3.3-16.5,11.3-16.5c8,0,11.3,8.6,11.3,16.5 C397.2,274.1,393.9,282.7,385.9,282.7 M385.9,238.3c-17.1,0-27.1,10.7-27.1,27.9c0,17.2,10,27.9,27.1,27.9 c17.1,0,27.1-10.7,27.1-27.9C413.1,249,403.1,238.3,385.9,238.3" style="fill: rgb(0, 55, 97);"></path>
    <path class="st0" d="M682.7,282.7c-8,0-11.3-8.6-11.3-16.5c0-7.9,3.3-16.5,11.3-16.5c8,0,11.3,8.6,11.3,16.5 C694,274.1,690.7,282.7,682.7,282.7 M682.7,238.3c-17.1,0-27.1,10.7-27.1,27.9c0,17.2,10,27.9,27.1,27.9 c17.1,0,27.1-10.7,27.1-27.9C709.8,249,699.8,238.3,682.7,238.3" style="fill: rgb(0, 55, 97);"></path>
    <path class="st0" d="M496.2,241.9c0-7.3,3.6-10.5,9.5-11.3c4.6-0.7,7.5-0.5,7.5-0.5l1.1-10.1c0,0-3.3-0.4-10.6,0.4 c-15.7,1.7-23.5,8.6-23.5,23.6v7.8v41.2c0,0,16,0,16-3.6v-32.8h14.2v-10.8h-14.3V241.9z" style="fill: rgb(0, 55, 97);"></path>
    <path class="st0" d="M311.9,280.4c2.3,0.9,6,1.4,8.9,1.4c7.5,0,13.8-3.4,13.8-11.1c0-7.4-6.7-10.4-14.9-10.4h-7.8V280.4z M311.9,248.5h7.5c8.7,0,13-3.1,13-8.5c0-5.6-3.9-8.7-11.4-8.7c-3.6,0-7,0.4-9.2,1.2V248.5z M296,223.9c5-1.7,12.9-3.1,20.4-3.7 c12.3-1,18.4,0.9,23.5,4.2c4.9,3.1,8.5,7.4,8.5,14c0,6.6-2.7,11.6-11,14.7v0.2c8.4,2.3,14.6,8.6,14.6,18.1c0,6.7-2.7,11.9-7.3,15.6 c-5.4,4.3-13.5,7.1-26,7.1c-9.5,0-22.7-3.4-22.7-3.4V223.9z" style="fill: rgb(0, 55, 97);"></path>
    <g>
      <path d="M342.9,325.8c-0.1-1.1-0.2-2.2-0.5-3.3c-0.3-1.1-0.7-2-1.3-2.7c-0.7-0.8-1.6-1.3-2.8-1.3c-0.2,0-0.7,0.1-1,0.6 c-0.3,0.5-0.2,1.1,0.3,1.5c0.3,0.2,0.7,0.4,1.2,0.5c0.1,0,0.3,0.1,0.6,0.5c0.2,0.2,0.5,0.8,0.7,1.9c0.2,1,0.3,2.4,0.3,4.3 c-0.1,2.3-0.4,4.8-0.9,7.4c-0.6,2.6-1.3,5.2-2.3,7.7c-0.9,2.5-2,4.9-3.2,7.2c-1.2,2.3-2.4,4.3-3.7,6c-1.3,1.7-2.5,3-3.8,4 c-1.1,0.9-2.2,1.4-3.1,1.4c-0.4,0-1.1-0.1-1.6-1.1c-0.6-0.9-1-2-1.3-3.3c-0.3-1.3-0.5-2.7-0.6-4.1c-0.1-1.4-0.1-2.6-0.1-3.6 c0.1-2.4,0.2-4.6,0.5-6.6c0.3-2,0.6-3.7,1-5.1c0.5-1.7,1-3.2,1.5-4.6c0-0.1,0.1-0.2,0.1-0.3c0-1.5-1.2-1.5-1.3-1.5 c-1.1,0-1.7,1.1-1.9,1.4c0,0,0,0,0,0.1c-0.2,0.4-0.3,0.8-0.5,1.3c-0.2,0.5-0.3,1-0.5,1.5c-0.2,0.5-0.3,1-0.4,1.4 c-0.1,0.4-0.2,0.6-0.3,0.8c0,0,0,0,0,0.1c-0.5,1-1.2,2.3-2,3.9c-0.9,1.6-1.9,3.4-3,5.2c-1.1,1.8-2.4,3.7-3.6,5.6 c-1.3,1.9-2.6,3.6-3.8,5.1c-1.3,1.5-2.5,2.7-3.8,3.7c-1.1,0.9-2.1,1.3-3,1.3c-0.4,0-0.7-0.1-1-0.4c-0.3-0.4-0.6-0.9-0.7-1.4 c-0.2-0.7-0.3-1.4-0.3-2.1c-0.1-0.7-0.1-1.5-0.1-2.1c0-2,0.3-4.2,0.9-6.6c0.5-2.4,1.2-4.8,2-7.2c0.8-2.4,1.7-4.8,2.7-7.1 c1-2.3,2-4.4,2.9-6.4c0.9-1.9,1.8-3.6,2.6-5c0.5-0.9,0.9-1.6,1.2-2.2c0.1,0.1,0.2,0.1,0.3,0.1c0.3,0.1,0.6,0.1,0.9-0.1 c0.4-0.3,0.5-0.8,0.5-1.7c0-0.5-0.1-1-0.3-1.4c-0.3-0.6-0.9-0.9-1.7-0.9c-0.8,0-1.7,0.7-2.7,2.3c-0.9,1.3-1.9,3-2.9,5.2 c-1.1,2.1-2.1,4.5-3.3,7.2c-1.1,2.7-2.1,5.4-3,8.2c-0.9,2.8-1.6,5.5-2.2,8.2c-0.6,2.7-0.9,5.2-1,7.3c0,1,0.1,1.9,0.2,2.9 c0.1,1,0.3,2,0.7,2.8c0.4,0.9,0.9,1.7,1.5,2.3c0.7,0.7,1.7,1,2.9,1c1.3,0,2.8-0.5,4.2-1.6c1.3-1,2.7-2.3,4-3.8 c1.3-1.5,2.6-3.2,3.9-5.1c1.2-1.8,2.4-3.6,3.4-5.3c0.9-1.5,1.8-3,2.5-4.3c-0.1,1-0.1,2.3-0.2,3.7c0,1.4,0,2.9,0.1,4.6 c0.1,1.8,0.3,3.4,0.8,5c0.4,1.6,1.1,3,2,4.1c1,1.2,2.3,1.9,4,1.9c1.7,0,3.3-0.6,5-1.9c1.6-1.2,3.1-2.8,4.5-4.7 c1.4-1.9,2.7-4.2,3.9-6.7c1.2-2.5,2.2-5.1,3.2-7.7c0.9-2.7,1.6-5.3,2.2-7.9c0.5-2.6,0.8-5,0.9-7.2 C343,327.9,343,326.9,342.9,325.8z"></path>
      <path d="M368.6,342.4c-0.4,0-1.1,0.2-2.7,1.4c-3.3,2.4-6.6,4.2-9.8,5.5c-3.1,1.3-5.6,1.9-7.2,1.9c-1,0-1.6-0.2-1.9-0.7 c-0.4-0.6-0.6-1.4-0.6-2.4c0-0.7,0.1-1.2,0.3-1.4c0.8,0,1.8-0.3,2.8-0.8c1-0.5,2-1.1,2.9-1.8c0.9-0.7,1.7-1.5,2.3-2.3 c0.6-0.9,1-1.8,1-2.7c0-0.5-0.1-1-0.4-1.4c-0.7-0.9-2-0.9-4.3-0.1c-1.1,0.4-2.2,1-3.3,1.9c-1.1,0.9-2.1,2-3,3.3 c-0.9,1.4-1.5,3-1.8,4.9c-0.3,2,0.2,3.5,1.5,4.7c1.2,1.1,2.7,1.7,4.4,1.7c1.4,0,2.9-0.3,4.7-0.9c1.7-0.6,3.5-1.3,5.3-2.2 c1.8-0.9,3.5-1.8,5-2.8c1.6-1,2.8-1.9,3.7-2.8c1.8-1.6,2-2,1.8-2.5C369.2,342.6,369,342.4,368.6,342.4z M348.2,343.8 c0.5-0.7,1.1-1.4,1.9-2.1c0.9-0.7,1.8-1.3,2.7-1.7c-0.3,0.7-0.8,1.3-1.6,2C350.3,342.7,349.3,343.3,348.2,343.8z"></path>
      <path d="M468,335.8c0.6,0,1.1-0.2,1.6-0.7c0.5-0.5,0.7-1,0.7-1.6c0-1.1-0.7-1.7-1.9-1.7c-1.3,0-2.1,0.8-2.1,2.1 C466.3,335.7,467.6,335.8,468,335.8z"></path>
      <path d="M577.9,342.4L577.9,342.4c-0.4-0.3-0.9-0.1-1.7,0.4c-0.8,0.5-1.6,1-2.6,1.5c-0.8,0.5-1.8,0.7-2.9,0.7 c-1.1,0-1.8-0.5-2.2-1.5c-0.5-1.2-0.7-2.5-0.9-3.9c-0.1-1.4-0.3-2.8-0.5-4.1c-0.3-2-1.3-2.4-2.2-2.4c-1.4,0-3.1,1.2-5,3.7 c-1,1.3-2.1,2.9-3.3,4.8c0.1-0.4,0.3-0.7,0.4-1.1c0.4-1,0.7-1.9,1-2.7c0.5-1.2,0.5-1.5,0.5-1.7c0-0.4-0.1-0.8-0.4-1.2 c-0.3-0.5-0.8-0.7-1.4-0.7c-0.4,0-0.8,0.2-1.2,0.5c-0.2,0.2-0.5,0.7-1.1,2.4c-0.4,1.2-1.1,3.1-1.9,5.8c0,0-0.1,0-0.1,0.1 c-0.3,0.1-0.5,0.3-0.6,0.4c-0.7,0.5-1.7,1.2-2.7,1.9c-1.1,0.8-2.3,1.5-3.6,2.2c-1.2,0.7-2.4,1.3-3.6,1.8c-1.1,0.5-2.1,0.8-2.8,0.8 c-0.7,0-1.3-0.2-1.3-1.8c0,0,0-0.2,0.3-1.3c0.2-0.6,0.4-1.2,0.6-1.7c0.9,0.1,1.9-0.1,2.9-0.5c1.1-0.4,2.2-1,3.1-1.8 c0.9-0.7,1.8-1.6,2.4-2.4c0.7-0.9,1-1.8,1-2.5c0-1.1-0.7-1.7-1.9-1.7c-1,0-2,0.3-3,0.8c-0.9,0.5-1.8,1.1-2.6,1.7 c-0.8,0.6-1.5,1.2-2.1,1.8l-0.6,0.5c-0.5-0.6-0.9-0.9-1.3-0.9c-0.4,0-0.7,0.2-1.3,0.7c-0.4,0.4-0.7,0.7-0.9,0.8 c-0.9,0.9-2.1,1.8-3.4,2.8c-1.3,1-2.7,1.9-4.1,2.7c-1.4,0.8-2.9,1.5-4.4,2c-2.2,0.8-4.2,1-6.1,0.5c-0.2,0-0.6-0.1-0.5-1.1 c0-0.3,0-0.6,0.1-0.8c0-0.1,0.1-0.2,0.1-0.4c0.2,0.1,0.4,0.1,0.6,0.1h0.8c0.8,0,1.7-0.3,2.8-0.8c1-0.5,2-1.2,2.9-1.9 c0.9-0.8,1.7-1.6,2.4-2.6c0.7-1,1-1.9,1-2.8c0-1.5-0.9-2.4-2.6-2.4c-1.1,0-2.3,0.4-3.6,1.1c-1.3,0.7-2.5,1.7-3.7,2.8 c-0.4,0.4-0.8,0.9-1.3,1.4c0,0-0.1,0-0.1,0.1c-2.2,1.9-4.3,3.2-6.3,3.9c-2.5,0.9-3.6,1.1-4.1,1.1c-1,0-1.6-0.3-2-1 c-0.5-0.8-0.9-1.7-1.2-2.7l-1-2.8c-0.5-1.4-1.6-1.7-2.3-1.7c-0.8,0-1.7,0.4-2.7,1.3c-1,0.8-1.9,1.7-2.9,2.7 c-0.6,0.6-1.2,1.3-1.7,1.9c0.4-0.9,0.8-1.8,1.2-2.7c0.5-1.2,1-2.2,1.4-3.1c0.6-1.3,0.6-1.8,0.6-2.1c0-0.6-0.3-1.1-0.8-1.5 c-0.5-0.3-0.9-0.4-1.2-0.4c-0.8,0-1.6,0.8-2.5,2.6c-0.6,1.3-1.3,2.9-1.9,4.7c-0.8,0.5-1.8,1.2-2.9,1.8c-1.6,1-3.3,1.9-5.1,2.7 c-1.8,0.8-3.6,1.5-5.4,2.1c-1.7,0.6-3.3,0.8-4.7,0.8c-1.1,0-2-0.2-2.8-0.7c-0.7-0.4-1-1.1-1-2.2c0-1,0.1-1.9,0.4-2.7 c0.3-0.8,0.6-1.7,0.8-2.5c0.1-0.2,0.2-0.4,0.3-0.7c0.1-0.3,0.2-0.6,0.2-0.8c0-1.3-0.7-1.6-1.2-1.7c-0.6-0.1-1.2,0-1.7,0.3 c0,0-0.1,0.1-0.1,0.1c-0.1,0.1-0.3,0.3-0.6,1c-0.3,0.5-0.5,1.1-0.8,1.8c0,0.1-0.1,0.2-0.1,0.4l0,0.1c-0.4,0.1-0.7,0.3-1.1,0.4 c-1.2,0.5-2.3,1.2-3.5,1.9c-1.2,0.7-2.3,1.4-3.3,2.2c-0.5,0.3-1,0.7-1.4,0.9c0,0,0-0.1,0-0.1l0-0.1c0.1-0.7,0.2-1.4,0.3-2.1 c0.1-0.7,0.2-1.5,0.2-2.2c0-0.7,0.1-1.2,0.1-1.5c0-1-0.3-2-0.9-3.1c-0.7-1.2-1.8-1.9-3.3-1.9c-0.7,0-1.4,0.2-2.2,0.5 c-0.8,0.3-1.5,0.7-2.2,1.1c-0.7,0.5-1.3,0.9-1.8,1.3c-0.3,0.2-0.5,0.4-0.7,0.5c-0.9-1.1-1.8-1.6-2.7-1.6c-0.9,0-1.9,0.4-3.1,1.2 c-0.9,0.6-1.7,1.3-2.6,2.2c-0.2,0.1-0.3,0.2-0.3,0.2c0,0-0.1,0.1-0.1,0.1c-2.2,1.9-4.3,3.2-6.3,3.9c-2.5,0.9-3.6,1.1-4.1,1.1 c-1,0-1.6-0.3-2-1c-0.5-0.8-0.9-1.7-1.2-2.7l-1-2.8c-0.5-1.4-1.6-1.7-2.3-1.7c-0.8,0-1.7,0.4-2.7,1.3c-1,0.8-1.9,1.7-2.9,2.7 c-0.6,0.6-1.2,1.3-1.7,1.9c0.4-0.9,0.8-1.8,1.2-2.7c0.5-1.2,1-2.2,1.4-3.1c0.6-1.3,0.6-1.8,0.6-2.1c0-0.6-0.3-1.1-0.8-1.5 c-0.5-0.3-0.9-0.4-1.2-0.4c-0.8,0-1.6,0.8-2.5,2.6c-0.6,1.2-1.2,2.7-1.8,4.3c-0.4,0.2-0.8,0.5-1.2,0.8c-3.3,2.4-6.6,4.2-9.8,5.5 c-3.1,1.3-5.6,1.9-7.2,1.9c-1,0-1.6-0.2-1.9-0.7c-0.4-0.6-0.5-1.4-0.5-2.4c0-0.7,0.1-1.2,0.3-1.4c0.8,0,1.8-0.3,2.8-0.8 c1-0.5,2-1.1,2.9-1.8c0.9-0.7,1.7-1.5,2.3-2.3c0.6-0.9,1-1.8,1-2.7c0-0.5-0.1-1-0.4-1.4c-0.7-0.9-2-0.9-4.3-0.1 c-1.1,0.4-2.2,1-3.3,1.9c-1.1,0.9-2.1,2-3,3.3c-0.9,1.4-1.5,3-1.8,4.9c-0.3,2,0.2,3.5,1.5,4.7c1.2,1.1,2.7,1.7,4.4,1.7 c1.4,0,2.9-0.3,4.7-0.9c1.7-0.6,3.5-1.3,5.3-2.2c1.8-0.9,3.5-1.8,5-2.8c0.8-0.5,1.5-1,2.1-1.4c-0.3,1-0.6,1.9-0.8,2.8 c-0.5,1.8-0.7,3-0.7,3.5c0,0.1,0,0.1,0,0.2c0.1,0.3,0.3,0.6,0.6,0.9c0.3,0.4,0.7,0.6,1.1,0.6c0.5,0,1.2-0.3,2.6-2.2 c0.9-1.2,2-2.7,3.1-4.3c1.1-1.6,2.2-3,3.3-4.3c1.2-1.5,2-1.7,2.3-1.7c0.2,0,0.3,0.3,0.4,0.8c0.2,0.9,0.4,1.9,0.8,2.9 c0.4,1.1,0.9,2.1,1.7,3c0.8,1,2.1,1.6,3.7,1.6c0.9,0,1.9-0.2,3.2-0.7c1.2-0.5,2.5-1,3.7-1.7c0.2-0.1,0.4-0.2,0.6-0.3 c-0.4,0.9-0.6,1.7-0.6,2.5c0,1.8,1,2.8,2.7,2.8c1.2,0,2.6-0.7,4.2-2.1c1.5-1.3,3-2.7,4.6-4.2c1.6-1.5,3.1-2.9,4.6-4.2 c1.4-1.2,2.5-1.8,3.4-1.8c0.2,0,0.5,0,0.7,0.8c0.2,0.8,0.3,1.4,0.3,1.8c0,0.2,0,0.6-0.1,1.3c0,0.6-0.1,1.3-0.2,2.1 c-0.1,0.8-0.2,1.6-0.3,2.3c-0.1,0.7-0.2,1.3-0.3,1.7c-0.1,0.4-0.2,0.7-0.4,1c-0.2,0.3-0.5,0.7-1,1.2c-0.5,0.5-1.2,1.1-2.1,2.1 c-0.9,0.8-2.1,2-3.7,3.4c-1.3,1.3-2.8,2.8-4.3,4.6c-1.6,1.8-3,3.6-4.4,5.5c-1.3,1.9-2.5,3.8-3.4,5.6c-0.9,1.9-1.4,3.6-1.4,5 c0,1.3,0.3,2.2,0.8,2.7c0.5,0.5,1.2,0.9,1.9,1c0,0,0.1,0,0.1,0c1.7,0,3.5-1.1,5.6-3.2c2-2,4-4.6,5.9-7.6c2-3,3.8-6.4,5.5-9.9 c1.7-3.5,3-6.8,3.9-9.9c1.7-1.5,3.5-3,5.3-4.3c1.1-0.8,2.4-1.5,3.7-2.1c-0.1,0.7-0.2,1.3-0.2,1.9c0,1.8,0.6,3.3,1.7,4.5 c2.2,2.2,6,2.3,11.1,0.3c2.4-0.9,4.7-2,6.9-3.2c1.8-1,3.5-1.9,4.9-2.8c-0.3,1.1-0.6,2.1-0.9,3c-0.5,1.8-0.7,3-0.7,3.5 c0,0.1,0,0.1,0,0.2c0.1,0.3,0.3,0.6,0.6,0.9c0.3,0.4,0.7,0.6,1.1,0.6c0.5,0,1.2-0.3,2.6-2.2c0.9-1.3,2-2.7,3.1-4.3 c1.1-1.6,2.2-3,3.3-4.3c1.2-1.5,2-1.7,2.3-1.7c0.2,0,0.3,0.3,0.4,0.8c0.2,0.9,0.4,1.9,0.8,2.9c0.4,1.1,0.9,2.1,1.7,3 c0.8,1,2.1,1.6,3.7,1.6c0.9,0,1.9-0.2,3.2-0.7c1.2-0.5,2.5-1,3.7-1.7c0.4-0.2,0.9-0.5,1.4-0.8c-0.2,0.8-0.4,1.5-0.4,2.3 c0,1.2,0.4,2.2,1.2,3c0.8,0.8,2.1,1.3,3.8,1.3c1.5,0,3-0.3,4.7-1c1.6-0.6,3.3-1.4,4.9-2.4c1.6-1,3.3-2.1,4.9-3.3 c1.4-1,2.7-2,3.9-3c0,0,0,0,0,0c-0.2,0.3-0.4,0.8-0.7,1.6c-0.4,1-0.6,2-0.6,2.9c0,1.6,0.7,3.5,4,3.7c1.4,0,2.7-0.3,3.9-0.8 c1.2-0.5,2.4-1.1,3.5-1.8c1.1-0.7,2.2-1.4,3.2-2c0.8-0.5,1.5-1,2.2-1.4c-0.7,2.3-1.6,5.1-2.7,8.6c-0.2,0.7-0.3,1.4-0.5,2.1 c-0.2,1-0.2,1.3-0.2,1.4c0,0.8,0.6,1.4,1.4,1.4c0.5,0,0.9-0.2,1.1-0.6c0.2-0.2,0.4-0.8,0.8-1.6c0.3-0.8,0.9-2,1.6-3.7 c0.7-1.6,1.8-3.9,3.2-6.9c1.7-3.5,3.5-6.4,5.2-8.5c2.5-2.9,3.1-3,3.1-3c0.1,0,0.3,0.5,0.3,1.2c0,1.2,0.2,2.6,0.4,4.1 c0.2,1.6,0.6,3,1.2,4.2c0.7,1.4,2,2.2,3.9,2.2c0.9,0,2-0.2,3.3-0.7c1.2-0.5,2.3-1.1,3.2-1.8c0,0,0,0,0,0c0.5-0.5,0.8-1,1-1.4 C578.4,342.8,578.1,342.5,577.9,342.4z M540.4,343.1c0.7-0.7,1.4-1.3,2.2-1.9c0.8-0.6,1.7-1.1,2.5-1.5c-0.3,0.6-0.8,1.3-1.5,2 C542.9,342.4,541.8,342.9,540.4,343.1z M523.7,341.1c-0.1,0.3-0.2,0.5-0.4,0.8c-0.4,0.7-1,1.3-1.6,1.8c-0.7,0.5-1.3,1-2.1,1.4 c-0.7,0.3-1.3,0.5-1.8,0.5c0-0.1,0.2-0.4,0.5-0.8c0.4-0.5,1-1,1.7-1.6c0.7-0.6,1.5-1.1,2.3-1.5 C522.8,341.5,523.3,341.3,523.7,341.1z M440.7,342.8C440.7,342.8,440.7,342.9,440.7,342.8c-0.1,0.2-0.3,0.4-0.9,0.8 c-0.5,0.4-1.1,0.9-2.1,1.7c-0.5,0.4-1,0.8-1.7,1.3c0.4-0.5,0.8-1.1,1.2-1.6c0.7-0.8,1.4-1.4,2.1-2c0.7-0.6,1.1-0.7,1.3-0.7 C440.7,342.5,440.7,342.7,440.7,342.8z M387.9,343.8c0.5-0.7,1.1-1.4,1.9-2.1c0.9-0.7,1.8-1.3,2.7-1.7c-0.3,0.7-0.8,1.3-1.6,2 C390,342.7,389,343.3,387.9,343.8z M448.8,355.8c-0.8,2.3-1.7,4.7-2.9,7.1c-1.5,3.2-3.1,6.1-4.8,8.6c-1.7,2.6-3.4,4.7-4.9,6.3 c-1.8,1.9-2.8,2.3-3.4,2.3c-0.3,0-0.5,0-0.5-0.7c0-2,0.8-4.4,2.4-7c1.7-2.7,3.6-5.4,5.7-7.9c2.1-2.5,4.2-4.7,6.2-6.7 C447.5,357.1,448.2,356.4,448.8,355.8z"></path>
      <path d="M603.9,366.1c-0.5,0-0.9-0.2-1.2-0.8c-0.2-0.5-0.5-1.5-0.6-4c-0.1-1.8,0.1-3.8,0.4-6c0.4-2.2,0.9-4.6,1.7-7 c0.7-2.4,1.5-4.9,2.5-7.4c0.9-2.5,1.8-4.9,2.8-7.2c2.2-5.5,4.8-11.1,7.8-16.8c0-0.1,0.1-0.2,0.1-0.3c0-0.2,0-0.9-0.5-1.2 c-0.2-0.1-0.6-0.3-1.1-0.1c-0.6,0.2-1.1,0.6-1.3,1c-2.3,3.7-4.4,7.3-6.2,10.9c-1.7,3.3-3.8,6.6-6.2,9.9c-0.2-0.4-0.5-0.8-0.7-1.1 c-0.6-0.8-1.3-1.2-2.2-1.2c-1.2,0-2.5,0.6-3.8,1.6c-1.2,1-2.4,2.3-3.4,3.7c-1,1.4-1.9,2.9-2.6,4.3c-0.7,1.5-1.1,2.9-1.1,3.9 c0,1,0.3,1.8,0.8,2.4c0.6,0.6,1.3,0.9,2.2,0.9c0.6,0,1.4-0.5,2.3-1.4c0.8-0.8,1.7-1.8,2.8-3c1-1.2,2-2.4,2.9-3.5 c0.6-0.7,1.2-1.4,1.7-2v1.1c0,0.4,0.1,0.8,0.4,1c0.2,0.1,0.4,0.3,0.8,0.2c0.2,0,0.5-0.1,0.7-0.4c0.2-0.3,0.3-0.7,0.2-1.2l-0.2-2.8 c0.5-0.7,1.1-1.4,1.8-2.1c0.3-0.3,0.7-0.7,1.1-1.3c-0.1,0.4-0.3,0.9-0.5,1.4c-0.7,2-1.4,4.3-2.3,6.9c-0.8,2.6-1.5,5.3-2.2,8.2 c-0.6,2.9-0.9,5.6-0.8,8.1c0,0.6,0.1,1.4,0.2,2.2c0.1,0.9,0.3,1.6,0.5,2.3c0.2,0.7,0.6,1.4,1.1,2c0.6,0.6,1.3,1,2.2,1 c0.6,0,1.2-0.3,1.5-0.7c0.3-0.4,0.2-0.8,0.1-0.9C605.2,366.2,604.6,366.1,603.9,366.1z M592.1,347.6c0.3-1,0.6-2,1-2.9 c0.7-1.5,1.5-2.8,2.3-4c0.8-1.1,1.6-2,2.4-2.7c0.8-0.7,1.1-0.9,1.2-0.9c0.2,0,0.4,0.2,0.6,0.6c0.3,0.5,0.4,0.8,0.4,1 c-0.5,0.5-1.2,1.2-2,2.1c-1,1.1-2,2.2-2.9,3.3c-1,1.1-1.9,2.2-2.8,3C592.3,347.4,592.2,347.5,592.1,347.6z"></path>
      <path d="M759.3,342.5c-0.2-0.5-0.8-0.5-1.2-0.5c-1,0-2.2,0.4-3.8,1.1c-1.5,0.7-3.1,1.5-4.8,2.5c-1.7,0.9-3.3,1.9-4.8,2.9 c-1.3,0.9-2.4,1.7-3.3,2.3c-0.2-0.1-0.4-0.2-0.6-0.3c-0.5-0.3-0.9-0.5-1.2-0.6c-3-1.7-5.4-3-7.2-3.8c-1.6-0.8-2.4-1.6-2.4-2.5 c0-0.5,0.3-1.2,1-1.9c0.7-0.8,1.6-1.7,2.6-2.5c1-0.8,2.1-1.5,3.3-2c1.2-0.5,2.2-0.8,3.2-0.8c0.8,0,0.8,0.2,0.8,0.4 c0,0.6-0.2,1.3-0.5,1.8c-0.4,0.6-0.8,1.2-1.2,1.7c-0.5,0.6-0.9,1.1-1.2,1.5c-0.5,0.6-0.7,1-0.7,1.5c0,0.9,0.6,1.5,1.5,1.5 c0.5,0,0.9-0.3,1.6-0.9c0.5-0.5,1-1.2,1.4-1.9c0.5-0.7,0.8-1.6,1.2-2.4c0.3-0.9,0.5-1.7,0.5-2.5c0-0.9-0.3-1.7-0.9-2.3 c-0.6-0.6-1.4-0.9-2.5-0.9c-1,0-2.1,0.3-3.6,0.9c-1.4,0.6-2.8,1.4-4.1,2.3c-1.3,0.9-2.4,2-3.4,3.1c-0.5,0.6-0.9,1.3-1.2,1.9 c-0.3,0.2-0.8,0.6-1.5,1.4c-0.8,0.9-1.6,1.7-2.3,2.4c-1.4,1.4-2.8,2.3-4.1,2.8c-1.3,0.5-2.3,0.8-2.9,0.8c-0.6,0-0.6-0.2-0.6-0.2 c-0.1-0.4-0.2-0.9-0.2-1.5c0-0.3,0-0.8,0.1-1.3c0-0.6,0-1.2,0-1.8c-0.1-0.6-0.2-1.2-0.5-1.7c-0.4-0.6-1-0.9-1.7-0.9 c-1.3,0-2.7,0.6-4.4,1.9c-1,0.8-2.1,1.6-3.1,2.3c0.5-1.2,1-2.3,1.4-3.4c0.7-1.7,1.1-3.2,1.1-4.4c0-0.8-0.2-1.4-0.7-1.7 c-0.4-0.3-0.9-0.4-1.3-0.4c-1,0-2.2,0.8-3.9,2.4c-1.6,1.5-3.2,3.3-5,5.2c-1.7,2-3.4,3.9-4.9,5.8c-0.5,0.6-0.9,1.1-1.3,1.6 c0.1-0.4,0.3-0.7,0.4-1.1c0.7-1.7,1.3-3.4,2-4.9c0.7-1.6,1.3-3.1,1.9-4.5c0.6-1.5,0.9-2.4,0.9-3c0-1.1-0.7-1.7-1.8-1.7 c-0.7,0-1.3,0.2-1.7,0.7c-0.3,0.4-0.6,0.8-0.8,1.3c-0.7,1.6-1.4,3.2-2,4.9l0,0c-1.2,1-2.5,1.9-3.9,2.9c-1.5,1.1-3.1,2.1-4.8,3 c-1.6,0.9-3.3,1.6-5,2.2c-1.7,0.6-3.2,0.8-4.7,0.8c-0.9,0-1.5-0.4-1.7-1.1c-0.3-1-0.5-2-0.5-3.1v-3c0-1.1-0.2-1.9-0.5-2.4 c-0.4-0.6-1.1-0.9-2.1-0.8H667c-0.2,0-0.4,0-0.6,0c-0.1-0.4-0.2-0.9-0.4-1.5c-0.2-0.8-0.9-1.8-2.6-1.8c-1.2,0-2.5,0.5-3.9,1.4 c-1.2,0.9-2.4,1.9-3.4,3c-0.1,0.1-0.1,0.1-0.2,0.2l-0.1,0.1c-0.4,0.2-0.9,0.5-1.4,0.9c-3.3,2.4-6.6,4.2-9.8,5.5 c-3.1,1.3-5.6,1.9-7.2,1.9c-1,0-1.6-0.2-1.9-0.7c-0.4-0.6-0.5-1.4-0.5-2.4c0-0.7,0.1-1.2,0.3-1.4c0.8,0,1.8-0.3,2.8-0.8 c1-0.5,2-1.1,2.9-1.8c0.9-0.7,1.7-1.5,2.3-2.3c0.6-0.9,1-1.8,1-2.7c0-0.5-0.1-1-0.4-1.4c-0.7-0.9-2-0.9-4.3-0.1 c-1.1,0.4-2.2,1-3.3,1.9c-1.1,0.9-2.1,2-3,3.3c-0.1,0.1-0.2,0.3-0.3,0.4c-0.7,0.4-1.4,0.8-2.1,1.3c-0.8,0.5-1.8,0.7-2.9,0.7 c-1.1,0-1.8-0.5-2.2-1.5c-0.5-1.2-0.7-2.5-0.9-3.9c-0.1-1.5-0.3-2.8-0.5-4.1c-0.3-2-1.3-2.4-2.2-2.4c-1.4,0-3.1,1.2-5,3.7 c-1,1.4-2.1,3-3.3,4.8c0.1-0.4,0.3-0.7,0.4-1.1c0.4-1,0.7-1.9,1-2.7c0.5-1.2,0.5-1.5,0.5-1.7c0-0.4-0.1-0.8-0.4-1.2 c-0.3-0.5-0.8-0.7-1.4-0.7c-0.4,0-0.8,0.2-1.2,0.5c-0.2,0.2-0.5,0.7-1.1,2.4c-0.4,1.2-1.1,3.2-1.9,5.9c-0.9,2.8-2.1,6.6-3.6,11.6 c-0.2,0.7-0.3,1.4-0.5,2.1c-0.2,1-0.2,1.3-0.2,1.4c0,0.8,0.6,1.4,1.4,1.4c0.5,0,0.9-0.2,1.1-0.6c0.2-0.2,0.4-0.8,0.8-1.6 c0.3-0.8,0.9-2,1.6-3.7c0.7-1.7,1.8-3.9,3.2-6.9c1.7-3.5,3.5-6.4,5.2-8.5c2.5-2.9,3.1-3,3.1-3c0.1,0,0.3,0.5,0.3,1.2 c0,1.2,0.2,2.6,0.4,4.1c0.2,1.6,0.6,3,1.2,4.2c0.7,1.4,2,2.2,3.9,2.2c0.9,0,2-0.2,3.3-0.7c0.2-0.1,0.4-0.2,0.6-0.3 c-0.1,0.4-0.2,0.9-0.2,1.3c-0.3,2,0.2,3.5,1.5,4.7c1.2,1.1,2.7,1.7,4.4,1.7c1.4,0,2.9-0.3,4.7-0.9c1.7-0.6,3.5-1.3,5.3-2.2 c1.8-0.9,3.5-1.8,5-2.8c0.2-0.1,0.3-0.2,0.5-0.3c-0.2,0.5-0.3,1-0.3,1.5c0,1.7,1,2.6,2.7,2.6c0.9,0,2-0.4,3.4-1.3 c1.3-0.8,2.5-1.7,3.8-2.7c1.2-0.9,2.3-1.8,3.4-2.7c0.9-0.7,1.4-1,1.6-1c0,0.1,0,0.2,0,0.5c0,0.7-0.1,1.3-0.1,1.7 c0,2,0.2,3.8,0.7,5.5c0.4,1.3,1.5,2.9,4.4,2.9c1.3,0,2.8-0.3,4.5-0.8c1.7-0.6,3.4-1.3,5.2-2.2c1.8-0.9,3.6-2,5.3-3.2 c0.7-0.5,1.3-1,2-1.5c-0.1,0.3-0.2,0.6-0.3,0.9c-0.4,1.5-0.8,2.8-1,3.9c-0.3,1.1-0.4,2-0.4,2.5c0,0.5,0.1,1.1,0.2,1.6 c0.2,0.8,0.8,1.2,1.7,1.2c0.8,0,1.7-0.6,2.5-1.9c0.7-1.1,1.6-2.4,2.7-4.1c1.1-1.6,2.3-3.4,3.8-5.2c1.4-1.8,3.2-3.6,5.3-5.2 c0.4-0.3,0.9-0.7,1.5-1.2c-0.3,0.9-0.7,1.7-1.1,2.6c-0.6,1.2-1.2,2.5-1.8,3.6c-0.6,1.2-1,2.3-1.4,3.2c-0.4,1-0.6,1.9-0.6,2.7 c0,1.4,0.8,2.2,2.1,2.2c0.9,0,1.8-0.7,2.8-2.1c0.8-1.2,2.1-2.6,3.7-4.2c0.2-0.2,0.6-0.5,1-0.8c0.5-0.3,1-0.7,1.5-1.1 c0.5-0.4,1-0.7,1.4-0.9c0.5-0.3,0.7-0.3,0.7-0.3c0.1,0,0.1,0,0.1,0c0,0,0.1,0.1,0,0.6c-0.1,0.8-0.1,1.4-0.1,1.8 c0,1.1,0.1,2.2,0.3,3.1c0.2,0.8,0.8,1.9,2.8,1.9c1.1,0,2.4-0.4,3.9-1.2c1.4-0.8,2.7-1.6,3.9-2.5c1.2-0.9,2.3-1.9,3.1-2.8 c0.2,0.3,0.3,0.6,0.6,0.8c0.6,0.6,1.3,1.2,2.4,1.8c1,0.6,2.3,1.3,3.9,2.1c1.4,0.7,2.9,1.5,4.7,2.6c-0.7,0.7-1.7,1.5-2.8,2.5 c-1.5,1.3-3.1,2.8-4.6,4.4c-1.5,1.6-2.9,3.2-4,4.8c-1.1,1.7-1.7,3.2-1.7,4.6c0,1.5,0.7,3.4,3.9,3.4c1.2,0,2.7-0.4,4.5-1 c1.8-0.7,3.5-1.6,5.1-2.8c1.6-1.2,3.1-2.5,4.2-4.1c1.2-1.6,1.8-3.3,1.8-5.1c0-1.6-0.4-3-1.2-4.2c-0.6-0.9-1.2-1.8-1.7-2.5 c0.7-0.6,1.6-1.2,2.6-1.9c1.3-0.9,2.7-1.7,4.1-2.6c1.4-0.9,2.9-1.7,4.5-2.5c1.5-0.8,2.8-1.3,3.9-1.6c0,0,0.1,0,0.1,0 c0.2-0.1,0.4-0.2,0.6-0.3C759.3,343.1,759.4,342.8,759.3,342.5z M743.5,359.3c-0.1,1.3-0.6,2.5-1.6,3.7c-1,1.2-2.2,2.4-3.6,3.3 c-1.4,1-2.8,1.8-4.3,2.4c-1.4,0.6-2.6,0.9-3.6,0.9c-0.5,0-1-0.1-1.4-0.2c-0.2,0-0.2-0.4-0.2-0.6c0-1.1,0.6-2.5,1.8-4.2 c1.2-1.8,2.6-3.5,4.2-5c1.5-1.6,3-3,4.3-4.1c1.2-1,1.7-1.4,1.9-1.5c0.2,0.1,0.6,0.4,1.3,1.4C743.1,356.5,743.5,357.8,743.5,359.3 L743.5,359.3z M657.4,347.2c0.9-1.5,1.9-2.8,3.1-4c2-2,2.9-2.2,3.2-2.2c0.1,0,0.2,0,0.2,0.2c0.1,0.4,0.2,0.8,0.2,1.1 c0,0-0.1,0.3-1,1.1c-0.7,0.6-1.6,1.3-2.6,2c-1,0.6-1.9,1.2-2.9,1.7C657.6,347.1,657.5,347.2,657.4,347.2z M636.8,343.8 c0.5-0.7,1.1-1.4,1.9-2.1c0.9-0.7,1.8-1.3,2.7-1.7c-0.3,0.7-0.8,1.3-1.6,2C638.9,342.7,637.9,343.3,636.8,343.8z"></path>
    </g>
  </g>
</svg>